<?xml version="1.0" encoding="UTF-8"?>
<svg id="Layer_1" data-name="Layer 1" xmlns="http://www.w3.org/2000/svg" viewBox="0 0 792 612">
  <defs>
    <style>
      .cls-1 {
        fill: #231f20;
      }
    </style>
  </defs>
  <path d="M306.81,205.92s0-.06.01-.09c0,.03,0,.06-.01.09Z"/>
  <g>
    <path class="cls-1" d="M256.23,296.89c8.52,0,15.12,3.12,18.96,8.04,3.72-4.92,10.32-8.04,18.84-8.04,15.84,0,25.68,10.2,25.68,27.96v37.2h-18.96v-37.92c0-6.12-3.24-9.6-8.04-9.6s-8.04,3.48-8.04,9.6v37.92h-18.96v-37.92c0-6.12-3.12-9.6-8.04-9.6s-8.04,3.48-8.04,9.6v37.92h-18.96v-37.2c0-17.76,9.84-27.96,25.56-27.96Z"/>
    <path class="cls-1" d="M325.43,330.37c0-19.56,15.12-33.48,33.96-33.48s33.96,13.92,33.96,33.48-15.12,33.48-33.96,33.48-33.96-13.92-33.96-33.48ZM359.39,346.21c8.52,0,15-6.36,15-15.84s-6.48-15.84-15-15.84-15,6.36-15,15.84,6.48,15.84,15,15.84Z"/>
    <path class="cls-1" d="M423.55,297.14c8.52,0,15.12,3.12,18.96,8.04,3.72-4.92,10.32-8.04,18.84-8.04,15.84,0,25.68,10.2,25.68,27.96v37.2h-18.96v-37.92c0-6.12-3.24-9.6-8.04-9.6s-8.04,3.48-8.04,9.6v37.92h-18.96v-37.92c0-6.12-3.12-9.6-8.04-9.6s-8.04,3.48-8.04,9.6v37.92h-18.96v-37.2c0-17.76,9.84-27.96,25.56-27.96Z"/>
    <path class="cls-1" d="M492.75,330.62c0-19.56,15.12-33.48,33.96-33.48s33.96,13.92,33.96,33.48-15.12,33.48-33.96,33.48-33.96-13.92-33.96-33.48ZM526.71,346.46c8.52,0,15-6.36,15-15.84s-6.48-15.84-15-15.84-15,6.36-15,15.84,6.48,15.84,15,15.84Z"/>
    <path d="M357.96,386.71s0-.06.01-.09c0,.03,0,.06-.01.09Z"/>
    <path d="M359.13,362.48s0,0,0,0c.02-.01.04-.03.06-.05-.02.01-.04.03-.06.04Z"/>
    <g>
      <path class="cls-1" d="M533.25,394.02c.41,0,.77.08,1.07.22.3.14.55.33.74.57.19.23.34.5.43.78.09.28.14.56.15.84,0,.25-.05.51-.14.77-.09.26-.23.5-.42.72-.19.22-.43.4-.73.53-.3.14-.65.2-1.06.21h-4.05v-4.64h4ZM539.81,406.62l-4.36-5.27c.76-.27,1.38-.59,1.86-.95.48-.36.86-.75,1.12-1.18.27-.43.45-.89.55-1.37.1-.48.16-.98.16-1.5,0-.7-.13-1.38-.38-2.02-.25-.64-.63-1.21-1.13-1.71-.5-.5-1.11-.9-1.84-1.19-.74-.29-1.58-.44-2.54-.44h-7.55v15.91h3.55v-5.23h2.57l4.07,5.23h3.93v-.27ZM507.82,390.98h-4.09v.18l6.09,9.41v6.32h3.55v-6.32l6.36-9.41v-.18h-4.07l-4.02,6.32-3.82-6.32ZM497.59,406.89v-15.91h-3.5v6.39h-7.12v-6.39h-3.55v15.91h3.55v-6.27h7.12v6.27h3.5ZM470.75,402.39c1.01-.02,1.9-.17,2.66-.46.76-.3,1.39-.7,1.91-1.22.51-.52.89-1.11,1.14-1.8.25-.69.38-1.43.38-2.23s-.13-1.5-.38-2.19c-.25-.69-.63-1.29-1.14-1.82-.51-.53-1.14-.94-1.91-1.24-.76-.3-1.65-.45-2.67-.46h-7.5v15.91h3.55v-4.5h3.96ZM466.8,394.34h3.96c.56,0,1.03.12,1.41.34.38.22.66.52.85.88.19.36.28.76.28,1.19s-.09.83-.28,1.19c-.19.36-.47.65-.85.86-.38.22-.85.33-1.42.34h-3.96v-4.8ZM456.18,403.62h-8.64v-3.21h7.84v-3.11h-7.84v-3.07h8.32v-3.25h-11.8v15.91h12.12v-3.27ZM424.82,394.02h7.39l-7.77,11.03v1.84h12.73v-3.32h-7.82l7.64-11.05v-1.55h-12.16v3.05Z"/>
      <path class="cls-1" d="M383.87,395.49c0,1.65-1.01,2.94-2.61,3.44,2.02.55,3.16,2.18,3.16,4.04,0,3.3-3.07,4.2-5.82,4.2h-6.58v-16.05h6.58c2.71,0,5.27,1.33,5.27,4.38ZM373.25,398.38h5.5c1.93,0,3.94-.6,3.94-2.89s-2.11-3.33-4.1-3.33h-5.34v6.21ZM373.25,405.97h5.34c2.02,0,4.61-.48,4.61-3.03-.02-2.5-2.29-3.39-4.45-3.39h-5.5v6.42Z"/>
      <path class="cls-1" d="M397.59,400.69l-6.22-9.55v-.02h1.44l5.4,8.39,5.43-8.39h1.44v.02l-6.25,9.55v6.38h-1.23v-6.38Z"/>
    </g>
    <polygon points="204.07 250.66 188.39 250.66 188.39 406.96 204.07 406.96 362.68 406.96 362.68 390.96 204.07 390.96 204.07 266.66 587.61 266.66 587.61 390.96 550.03 390.96 550.03 406.96 603.61 406.96 603.61 250.66 204.07 250.66"/>
  </g>
</svg>